<?xml version="1.0" encoding="UTF-8"?>
<svg version="1.1" xmlns="http://www.w3.org/2000/svg" width="450" height="200">
<path d="M0 0 C148.5 0 297 0 450 0 C450 66 450 132 450 200 C301.5 200 153 200 0 200 C0 134 0 68 0 0 Z " fill="#263C97" transform="translate(0,0)"/>
<path d="M0 0 C3.34125 -0.0825 6.6825 -0.165 10.125 -0.25 C11.16672363 -0.28641602 12.20844727 -0.32283203 13.28173828 -0.36035156 C19.20698988 -0.43101238 22.46607483 0.10528395 27 4 C28 5 28 5 28.25 8.8125 C28.22395215 12.43966299 27.63994297 14.36005703 25 17 C25.825 17.680625 26.65 18.36125 27.5 19.0625 C30 22 30 22 30.5 25.5 C29.97025241 29.20823312 29.38143701 31.12585188 27 34 C23.45455443 35.74711911 20.62911483 36.2412762 16.69921875 36.1953125 C15.37796997 36.18781982 15.37796997 36.18781982 14.0300293 36.18017578 C12.37547729 36.15286377 12.37547729 36.15286377 10.6875 36.125 C7.160625 36.08375 3.63375 36.0425 0 36 C0 24.12 0 12.24 0 0 Z " fill="#F5F6FA" transform="translate(11,108)"/>
<path d="M0 0 C1.98 0 3.96 0 6 0 C8.47296215 4.61958033 10.16630011 9.20108948 11.6875 14.1875 C11.91244141 14.89841797 12.13738281 15.60933594 12.36914062 16.34179688 C13.29428198 19.33093141 14 21.85275886 14 25 C14.66 25 15.32 25 16 25 C16.17015625 24.3709375 16.3403125 23.741875 16.515625 23.09375 C18.14570353 17.33645135 20.16919403 12.27115594 23 7 C24.98 7 26.96 7 29 7 C32.465 15.415 32.465 15.415 36 24 C37.77520936 21.33718596 38.6804012 19.35099314 39.69140625 16.3671875 C40.14870117 15.03494141 40.14870117 15.03494141 40.61523438 13.67578125 C40.92783203 12.75152344 41.24042969 11.82726562 41.5625 10.875 C42.18620617 9.03817899 42.81237627 7.20219216 43.44140625 5.3671875 C43.71670166 4.55362793 43.99199707 3.74006836 44.27563477 2.90185547 C45 1 45 1 46 0 C47.66617115 -0.04063832 49.33388095 -0.042721 51 0 C49.49163573 8.0359407 46.7718177 15.43096765 43.875 23.0625 C43.40179368 24.32205911 42.92913331 25.58182346 42.45703125 26.84179688 C41.31002222 29.89658624 40.15756363 32.949198 39 36 C36.63989258 35.76586914 36.63989258 35.76586914 34 35 C32.69799805 33.14233398 32.69799805 33.14233398 31.76171875 30.74609375 C31.41689453 29.89208984 31.07207031 29.03808594 30.71679688 28.15820312 C30.20729492 26.81145508 30.20729492 26.81145508 29.6875 25.4375 C29.32849609 24.53580078 28.96949219 23.63410156 28.59960938 22.70507812 C27.71520474 20.47637844 26.84976878 18.24208468 26 16 C24.39112606 18.41331092 23.34691596 20.36778106 22.2734375 23.01171875 C21.9640625 23.76904297 21.6546875 24.52636719 21.3359375 25.30664062 C21.01882812 26.09232422 20.70171875 26.87800781 20.375 27.6875 C19.88773438 28.88342773 19.88773438 28.88342773 19.390625 30.10351562 C18.59079299 32.06780896 17.79500369 34.03374756 17 36 C15.35 36 13.7 36 12 36 C8 24 4 12 0 0 Z " fill="#F4F5F9" transform="translate(89,108)"/>
<path d="M0 0 C6 0 6 0 8.89453125 2.67578125 C9.88530815 3.87325615 10.85716518 5.08656347 11.8125 6.3125 C12.32659424 6.94244873 12.84068848 7.57239746 13.37036133 8.22143555 C14.42025433 9.51122039 15.46252803 10.80724501 16.49707031 12.109375 C17.89553078 13.86858194 19.31279994 15.60963586 20.7421875 17.34375 C22.28711455 19.21938028 23.82573872 21.10023608 25.35546875 22.98828125 C26.84295825 24.87626649 26.84295825 24.87626649 28 26 C28.33 17.75 28.66 9.5 29 1 C30.65 1 32.3 1 34 1 C34 12.55 34 24.1 34 36 C28 36 28 36 25.796875 33.98046875 C25.12140625 33.05878906 24.4459375 32.13710937 23.75 31.1875 C19.7796333 25.97891725 15.61679587 21.20921332 11.1640625 16.41015625 C9 14 9 14 6 10 C6 18.58 6 27.16 6 36 C4.02 36 2.04 36 0 36 C0 24.12 0 12.24 0 0 Z " fill="#F4F5F9" transform="translate(191,108)"/>
<path d="M0 0 C1.4540625 0.0309375 1.4540625 0.0309375 2.9375 0.0625 C6.72008449 8.05784525 10.30846289 16.12936801 13.8125 24.25 C14.21782959 25.18287842 14.62315918 26.11575684 15.04077148 27.0769043 C15.41661377 27.95258057 15.79245605 28.82825684 16.1796875 29.73046875 C16.5185498 30.51703857 16.85741211 31.3036084 17.20654297 32.11401367 C17.9375 34.0625 17.9375 34.0625 17.9375 36.0625 C15.9575 36.0625 13.9775 36.0625 11.9375 36.0625 C8.9375 30.4375 8.9375 30.4375 8.9375 27.0625 C2.9975 27.0625 -2.9425 27.0625 -9.0625 27.0625 C-10.0525 30.0325 -11.0425 33.0025 -12.0625 36.0625 C-14.0425 36.0625 -16.0225 36.0625 -18.0625 36.0625 C-15.6422186 28.35711432 -12.60567367 20.98790705 -9.4375 13.5625 C-8.93476563 12.37140625 -8.43203125 11.1803125 -7.9140625 9.953125 C-3.71962907 0.0759108 -3.71962907 0.0759108 0 0 Z " fill="#F6F6FA" transform="translate(164.0625,107.9375)"/>
<path d="M0 0 C1.98 0 3.96 0 6 0 C9.99872056 8.35982518 13.82366444 16.77847616 17.4375 25.3125 C17.79134766 26.14241455 18.14519531 26.9723291 18.50976562 27.82739258 C18.83525391 28.60236084 19.16074219 29.3773291 19.49609375 30.17578125 C19.93199829 31.21085815 19.93199829 31.21085815 20.37670898 32.2668457 C21 34 21 34 21 36 C19.02 36 17.04 36 15 36 C14.01 33.03 13.02 30.06 12 27 C6.06 27 0.12 27 -6 27 C-6.99 29.97 -7.98 32.94 -9 36 C-10.98 36 -12.96 36 -15 36 C-12.54933568 28.02889185 -9.24006872 20.52991078 -5.8125 12.9375 C-5.24765492 11.67791007 -4.68319889 10.4181456 -4.11914062 9.15820312 C-2.74989682 6.10373617 -1.37676603 3.05108191 0 0 Z " fill="#F5F6FA" transform="translate(63,108)"/>
<path d="M0 0 C8.58 0 17.16 0 26 0 C26 1.98 26 3.96 26 6 C19.4 6 12.8 6 6 6 C6 8.97 6 11.94 6 15 C11.61 15 17.22 15 23 15 C23 16.65 23 18.3 23 20 C17.39 20 11.78 20 6 20 C6 23.63 6 27.26 6 31 C12.6 31 19.2 31 26 31 C26 32.65 26 34.3 26 36 C17.42 36 8.84 36 0 36 C0 24.12 0 12.24 0 0 Z " fill="#F0F1F7" transform="translate(331,108)"/>
<path d="M0 0 C1.65 0 3.3 0 5 0 C5 4.95 5 9.9 5 15 C11.93 15 18.86 15 26 15 C26 10.05 26 5.1 26 0 C27.65 0 29.3 0 31 0 C31 11.55 31 23.1 31 35 C29.35 35 27.7 35 26 35 C26 30.05 26 25.1 26 20 C19.07 20 12.14 20 5 20 C5 24.95 5 29.9 5 35 C3.35 35 1.7 35 0 35 C0 23.45 0 11.9 0 0 Z " fill="#FEFEFE" transform="translate(410,109)"/>
<path d="M0 0 C2.17931389 0.96934782 4.30655703 1.98553124 6.4140625 3.1015625 C6.4140625 7.1015625 6.4140625 7.1015625 5.4140625 9.1015625 C0.6640625 7.2265625 0.6640625 7.2265625 -1.5859375 6.1015625 C-9.42491997 5.47595412 -9.42491997 5.47595412 -16.5859375 8.1015625 C-19.02727354 12.0542018 -19.31304525 16.57043984 -18.5859375 21.1015625 C-16.48165261 25.15982621 -14.81273953 27.40929624 -10.5859375 29.1015625 C-5.10446197 29.85661369 -1.13997799 29.41359195 3.4140625 26.1015625 C4.0740625 26.1015625 4.7340625 26.1015625 5.4140625 26.1015625 C6.0740625 27.7515625 6.7340625 29.4015625 7.4140625 31.1015625 C0.53816386 35.41585185 -5.53390698 36.14087283 -13.5859375 35.1015625 C-18.09259518 32.96682992 -20.7600907 30.18334121 -23.5859375 26.1015625 C-25.59732697 20.0673941 -25.66350252 13.33651217 -22.8984375 7.6015625 C-16.34570539 0.51752779 -9.5913806 -3.33235278 0 0 Z " fill="#F6F7FA" transform="translate(391.5859375,108.8984375)"/>
<path d="M0 0 C9.57 0 19.14 0 29 0 C29 1.98 29 3.96 29 6 C25.04 6 21.08 6 17 6 C17 15.9 17 25.8 17 36 C15.02 36 13.04 36 11 36 C11 26.1 11 16.2 11 6 C7.37 6 3.74 6 0 6 C0 4.02 0 2.04 0 0 Z " fill="#EAECF4" transform="translate(293,108)"/>
<path d="M0 0 C3.12890625 -0.46875 3.12890625 -0.46875 7 0 C9.47334587 2.16183189 11.15279184 4.75999162 12.9375 7.5 C13.67709961 8.57314453 13.67709961 8.57314453 14.43164062 9.66796875 C15.64223982 11.43097729 16.82402547 13.21370958 18 15 C19.45932573 13.06324055 20.91749264 11.12562712 22.375 9.1875 C22.7875 8.64029297 23.2 8.09308594 23.625 7.52929688 C25.48407032 5.05553395 27.28289972 2.57565041 29 0 C32.125 -0.1875 32.125 -0.1875 35 0 C33.97550807 3.25751624 32.60800952 5.62515187 30.43359375 8.20703125 C22.75294215 17.37105409 20.32484035 24.05124438 21 36 C19.02 36 17.04 36 15 36 C15.07863281 35.04222656 15.15726563 34.08445313 15.23828125 33.09765625 C15.66936858 20.60087829 10.43103616 13.72845797 2.29101562 4.6472168 C1 3 1 3 0 0 Z " fill="#F0F2F8" transform="translate(234,108)"/>
<path d="M0 0 C2.22855574 -0.0814222 4.45797655 -0.13938079 6.6875 -0.1875 C8.54955078 -0.23970703 8.54955078 -0.23970703 10.44921875 -0.29296875 C14.21529449 0.01776357 16.05847136 0.67221136 19 3 C19.5625 5.5 19.5625 5.5 19 8 C16.46581398 10.68738619 15.06304267 10.99497 11.328125 11.29296875 C9.96843965 11.27316751 8.6089066 11.23759202 7.25 11.1875 C6.55261719 11.17396484 5.85523438 11.16042969 5.13671875 11.14648438 C3.42414459 11.1112945 1.71197059 11.05749155 0 11 C0 7.37 0 3.74 0 0 Z " fill="#354A9E" transform="translate(16,128)"/>
<path d="M0 0 C2.27024968 -0.08097324 4.54132075 -0.13917704 6.8125 -0.1875 C8.07707031 -0.22230469 9.34164063 -0.25710937 10.64453125 -0.29296875 C14 0 14 0 15.95703125 1.3828125 C17 3 17 3 16.875 5.0625 C16 7 16 7 13 9 C9.86328125 9.1953125 9.86328125 9.1953125 6.3125 9.125 C5.13300781 9.10695313 3.95351563 9.08890625 2.73828125 9.0703125 C1.83464844 9.04710938 0.93101563 9.02390625 0 9 C0 6.03 0 3.06 0 0 Z " fill="#293F98" transform="translate(17,114)"/>
<path d="M0 0 C3.02952396 1.51476198 3.37093771 3.85368016 4.625 6.9375 C5.07101563 8.01902344 5.51703125 9.10054687 5.9765625 10.21484375 C7 13 7 13 7 15 C3.04 15 -0.92 15 -5 15 C-4.23239022 11.16195111 -3.40495674 8.23779856 -1.9375 4.6875 C-1.39416016 3.36298828 -1.39416016 3.36298828 -0.83984375 2.01171875 C-0.56269531 1.34785156 -0.28554687 0.68398437 0 0 Z " fill="#31469C" transform="translate(163,115)"/>
<path d="M0 0 C0.66 0 1.32 0 2 0 C2.83764268 1.95649397 3.66999059 3.91525556 4.5 5.875 C4.9640625 6.96554688 5.428125 8.05609375 5.90625 9.1796875 C7 12 7 12 7 14 C3.04 14 -0.92 14 -5 14 C-1.85714286 4.42857143 -1.85714286 4.42857143 0 0 Z " fill="#2F449B" transform="translate(65,116)"/>
</svg>
